<?xml version="1.0" encoding="utf-8"?>
<!-- Generator: Adobe Illustrator 23.0.3, SVG Export Plug-In . SVG Version: 6.00 Build 0)  -->
<svg version="1.1" id="Layer_1" xmlns="http://www.w3.org/2000/svg" xmlns:xlink="http://www.w3.org/1999/xlink" x="0px" y="0px"
	 viewBox="0 0 558 86" style="enable-background:new 0 0 558 86;" xml:space="preserve">
<style type="text/css">
	.st0{fill:#CCCCCC;}
	.st1{fill:#FFFFFF;}
</style>
<g>
	<path class="st0" d="M8.7,71.4c5.5-2.2,8.4-4.7,9.4-11.7l4.8-34.5H34l-4.8,34.1c-1.7,12.5-8.6,16.8-17.8,20.2L8.7,71.4z M23.7,12.3
		c0-4.1,3.2-7.1,7.4-7.1c3.6,0,6,2.4,6,5.7c0,4.1-3.2,7.2-7.4,7.2C26.1,18.1,23.7,15.6,23.7,12.3z"/>
	<path class="st0" d="M37.7,48.5c0-10.7,5.2-24.4,21.3-24.4c10.2,0,16.1,6.3,16,16.3C75,50.9,69.8,64.7,53.7,64.7
		C43.6,64.7,37.7,58.6,37.7,48.5z M63.6,39.6c0-5-1.8-7.2-5.3-7.2c-7.6,0-9.1,10.9-9.1,16.8c0,5,1.7,7.2,5.3,7.2
		C62,56.4,63.5,45.5,63.6,39.6z"/>
	<path class="st0" d="M115.1,35.9l-3.8,27.7h-11.2l3.5-25.3c0.6-3.9-0.6-4.9-2.2-4.9c-2.9,0-5.8,3.7-8.4,9.1l-3,21H78.8l5.3-38.2
		h9.7L93.6,32c3.2-4.8,7.9-7.9,13-7.9C112.8,24.1,116.2,28.5,115.1,35.9z"/>
	<path class="st0" d="M157.3,28.1l-3.5,24.5c-0.3,2.5-0.2,3.8,1.9,4.6l-3.2,7.3c-4.2-0.4-7.7-2.2-8.9-6.3c-2.7,3.8-6.3,6.6-11.4,6.6
		c-8.1,0-12.4-6-12.4-15.2c0-10.9,5.8-25.5,21.9-25.5C147,24.1,152.4,25.4,157.3,28.1z M131.4,49.5c0,5.4,1.8,6.9,4.3,6.9
		c2.7,0,5.1-2,7.3-5.3l2.7-18.2c-1.4-0.5-2.6-0.7-4.2-0.7C134,32.1,131.4,42.1,131.4,49.5z"/>
	<path class="st0" d="M174.8,50.9c-0.5,3.7,0.4,4.9,2.6,4.9c1.5,0,2.7-0.5,4.3-1.2l3,7.4c-3.2,1.9-7.2,2.8-10.4,2.8
		c-7.9,0-11.9-5-10.7-13.9l2.5-17.6h-5.3l1.1-7.9h5.8l2.4-8.5l9.6-1.1l-1.4,9.6h8.8l-2.4,7.9h-7.5L174.8,50.9z"/>
	<path class="st0" d="M224.2,35.8l-3.9,27.7h-11.2l3.5-25.3c0.6-3.9-0.5-4.9-2.2-4.9c-3,0-5.8,3.7-8.6,9.1l-3,21h-11.2l7.5-53.4
		l11.3-1.2l-3.2,22.8c2.7-4.5,7.2-7.6,12.2-7.6C221.8,24.1,225.2,28.5,224.2,35.8z"/>
	<path class="st0" d="M266.4,28.1l-3.5,24.5c-0.3,2.5-0.2,3.8,1.9,4.6l-3.2,7.3c-4.2-0.4-7.7-2.2-8.9-6.3c-2.7,3.8-6.3,6.6-11.4,6.6
		c-8.1,0-12.4-6-12.4-15.2c0-10.9,5.8-25.5,21.9-25.5C256,24.1,261.4,25.4,266.4,28.1z M240.5,49.5c0,5.4,1.8,6.9,4.3,6.9
		c2.7,0,5.1-2,7.3-5.3l2.7-18.2c-1.4-0.5-2.6-0.7-4.2-0.7C243.1,32.1,240.5,42.1,240.5,49.5z"/>
	<path class="st0" d="M306.2,35.9l-3.8,27.7h-11.2l3.5-25.3c0.6-3.9-0.6-4.9-2.2-4.9c-2.9,0-5.8,3.7-8.4,9.1l-3,21h-11.2l5.3-38.2
		h9.7l-0.2,6.7c3.2-4.8,7.9-7.9,13-7.9C303.9,24.1,307.3,28.5,306.2,35.9z"/>
</g>
<g>
	<path class="st1" d="M354.4,63.4h-11.9l-0.6-30.2l-9.4,30.2h-11.6L320,23.9h9l-0.6,32.4l10-32.4h9.7l0.5,32.4l9.1-32.4h8.8
		L354.4,63.4z"/>
	<path class="st1" d="M365.2,63.4l5.5-39.5h9.2l-2.2,15.3h11.7l2.2-15.3h9.2l-5.5,39.5h-9.2l2.3-16.9h-11.6l-2.4,16.9H365.2z"/>
	<path class="st1" d="M411.8,63.4h-9.2l5.5-39.5h9.2L411.8,63.4z"/>
	<path class="st1" d="M449.3,31.1h-9.6l-4.6,32.3H426l4.6-32.3h-10.1l1-7.2h29.8L449.3,31.1z"/>
	<path class="st1" d="M479.3,63.4h-11.6l-7.3-31.8c0.2,4.9,0.2,10-0.9,17.7l-2,14h-8.2l5.5-39.5h11.5l7.5,31.8
		c-0.3-5.5-0.3-9.6,0.6-16.2l2.2-15.6h8.2L479.3,63.4z"/>
	<path class="st1" d="M514.1,30.5h-13.7L499,40h12l-0.9,6.6h-12l-1.4,10.1h14.7l-0.9,6.7h-23.9l5.5-39.5H516L514.1,30.5z"/>
	<path class="st1" d="M535.5,48.6l-2.1,14.8h-9.2l2.1-14.8l-9-24.7h9.8l4.8,17.4l9.6-17.4h9.9L535.5,48.6z"/>
</g>
</svg>
